<?xml version="1.0" encoding="utf-8"?>
<!-- Generator: Adobe Illustrator 23.0.6, SVG Export Plug-In . SVG Version: 6.00 Build 0)  -->
<svg version="1.1" id="Ebene_1" xmlns="http://www.w3.org/2000/svg" xmlns:xlink="http://www.w3.org/1999/xlink" x="0px" y="0px"
	 viewBox="0 0 670.9 84.6" style="enable-background:new 0 0 670.9 84.6;" xml:space="preserve">
<style type="text/css">
	.st0{fill:#B61231;}
	.st1{fill:#6E6E6E;}
</style>
<g>
	<path class="st0" d="M23.4,13v70.1H0V13H23.4z"/>
	<path class="st0" d="M55.4,13l24.9,30.9V13h23.2v70.1H82.8l-26-32.3v32.3H33.5V13H55.4z"/>
	<path class="st0" d="M172.5,13v20h-35.2v8.9H170v18.2h-32.7v22.9h-23.4V13H172.5z"/>
	<path class="st0" d="M214,13c12.5,0,20.3,3.1,25.2,8c4.3,4.3,6.4,9.4,6.4,16.6v0.2c0,10.3-5.3,17.3-13.8,21.4l16.3,23.8h-26.7
		l-13.2-20H208h-4.8v20h-23.4V13H214z M222.3,39.5v-0.2c0-4.5-3.4-6.7-8.9-6.7h-10.2v13.7h10.1C218.9,46.3,222.3,43.8,222.3,39.5z"
		/>
	<path class="st0" d="M302.1,12.5l29.5,70.6h-25.4l-3.7-9.4H278l-3.6,9.4h-25l29.5-70.6H302.1z M290.3,40l-6.4,17h12.8L290.3,40z"/>
	<path class="st1" d="M400.6,48.2V48c0-20.3,16.7-36.6,38.4-36.6c21.6,0,38.2,15.9,38.2,36.3V48c0,20.3-16.7,36.6-38.4,36.6
		C417.2,84.6,400.6,68.7,400.6,48.2z M453.5,48.2V48c0-8.3-5.7-15.8-14.7-15.8c-8.9,0-14.5,7.4-14.5,15.6V48
		c0,8.3,5.7,15.8,14.7,15.8C447.9,63.9,453.5,56.4,453.5,48.2z"/>
	<path class="st1" d="M507.8,13v50.1h32.9v20h-56.4V13H507.8z"/>
	<path class="st1" d="M568.6,13v70.1h-23.4V13H568.6z"/>
	<path class="st1" d="M605.6,13c27.8,0,41.8,13.6,41.8,34.4v0.2c0,20.8-14.2,35.5-42.6,35.5h-26V13H605.6z M623.7,48.1v-0.2
		c0-10.1-6.8-14.5-17.6-14.5h-3.9v29.2h3.9C616.9,62.7,623.7,58.2,623.7,48.1z"/>
	<g>
		<path class="st1" d="M347.5,68.1c0-4.2-3.4-7.7-7.7-7.7c-4.2,0-7.7,3.4-7.7,7.7c0,4.2,3.4,7.7,7.7,7.7
			C344.1,75.8,347.5,72.4,347.5,68.1z"/>
		<path class="st1" d="M389.1,34.4c4.2,0,7.7-3.4,7.7-7.7c0-4.2-3.4-7.7-7.7-7.7c-4.2,0-7.7,3.4-7.7,7.7
			C381.5,30.9,384.9,34.3,389.1,34.4z"/>
		<path class="st1" d="M367.3,37.8c-7.3-1.5-9.3-2.6-9.3-4.5v-0.2c0-1.7,1.6-2.9,5.1-2.9c4.6,0,9.8,1.1,14.8,3.4c-1.2-2-2-4.4-2-6.9
			c0-5.3,3.1-9.8,7.6-11.9c-5.6-2-12-3.1-19.6-3.1c-19.2,0-29.7,10.3-29.7,23.6v0.2c0,14.8,13.8,19.3,29.5,22.5
			c7.5,1.5,9.7,2.6,9.7,4.6v0.2c0,1.9-1.7,3-6,3c-5.2,0-10.4-0.9-15.5-3c0.7,1.6,1.1,3.4,1.1,5.3c0,5.8-3.8,10.7-9,12.4
			c6.7,2.5,14.2,3.8,22.3,3.8c18.8,0,30.9-9,30.9-23.7v-0.2C397.3,46.4,385.2,41,367.3,37.8z"/>
	</g>
</g>
<g>
	<path class="st1" d="M660,21.8c-1.5,0-2.9-0.3-4.3-0.9c-1.3-0.6-2.5-1.3-3.4-2.3c-1-1-1.7-2.1-2.3-3.4c-0.6-1.3-0.8-2.7-0.8-4.2
		v-0.1c0-1.5,0.3-2.9,0.8-4.2c0.6-1.3,1.3-2.5,2.3-3.5c1-1,2.1-1.8,3.5-2.4c1.3-0.6,2.8-0.9,4.3-0.9s2.9,0.3,4.3,0.9
		c1.3,0.6,2.5,1.3,3.4,2.3c1,1,1.7,2.1,2.3,3.4c0.6,1.3,0.8,2.7,0.8,4.2v0.1c0,1.5-0.3,2.9-0.8,4.2c-0.6,1.3-1.3,2.5-2.3,3.5
		c-1,1-2.1,1.8-3.5,2.4C662.9,21.5,661.5,21.8,660,21.8z M660,20.6c1.4,0,2.7-0.3,3.8-0.8c1.2-0.5,2.2-1.2,3.1-2.1
		c0.9-0.9,1.5-1.9,2-3.1c0.5-1.2,0.7-2.4,0.7-3.8v-0.1c0-1.3-0.2-2.6-0.7-3.7c-0.5-1.2-1.2-2.2-2-3.1C666,3.1,665,2.5,663.8,2
		c-1.2-0.5-2.4-0.8-3.8-0.8c-1.4,0-2.7,0.3-3.8,0.8c-1.2,0.5-2.2,1.2-3,2.1c-0.9,0.9-1.5,1.9-2,3.1c-0.5,1.2-0.7,2.4-0.7,3.8v0.1
		c0,1.3,0.2,2.6,0.7,3.7s1.2,2.2,2,3.1c0.8,0.9,1.9,1.6,3,2.1C657.3,20.3,658.6,20.6,660,20.6z M655.5,4.8h5.1
		c1.5,0,2.7,0.4,3.6,1.3c0.6,0.6,1,1.5,1,2.5v0.1c0,0.9-0.2,1.7-0.7,2.3c-0.5,0.6-1.1,1-1.8,1.3l2.8,4.2h-3l-2.5-3.7H660h-2v3.7
		h-2.6V4.8z M660.6,10.4c0.6,0,1.1-0.2,1.5-0.5c0.3-0.3,0.5-0.7,0.5-1.2V8.7c0-0.6-0.2-1-0.5-1.3c-0.4-0.3-0.9-0.4-1.5-0.4h-2.5v3.4
		H660.6z"/>
</g>
</svg>
